HIERARCHY
ROOT hips
{
	OFFSET 0.000000 104.274902 0.000000
	CHANNELS 6 Xposition Yposition Zposition Xrotation Yrotation Zrotation
	JOINT spine
	{
		OFFSET 0.000000 10.181549 0.131524
		CHANNELS 6 Xposition Yposition Zposition Xrotation Yrotation Zrotation
		JOINT chest
		{
			OFFSET 0.000000 9.893990 -1.470706
			CHANNELS 3 Xrotation Yrotation Zrotation
			JOINT upperChest
			{
				OFFSET 0.000000 9.220787 -1.370637
				CHANNELS 3 Xrotation Yrotation Zrotation
				JOINT neck
				{
					OFFSET 0.000000 16.740372 -2.049022
					CHANNELS 6 Xposition Yposition Zposition Xrotation Yrotation Zrotation
					JOINT head
					{
						OFFSET 0.000000 9.617859 1.684976
						CHANNELS 6 Xposition Yposition Zposition Xrotation Yrotation Zrotation
						JOINT headEnd
						{
							OFFSET 0.000000 22.037384 7.501072
							CHANNELS 6 Xposition Yposition Zposition Xrotation Yrotation Zrotation
							End Site
							{
								OFFSET 0.000000 23.106567 -2.828246
							}
						}
					}
				}
				JOINT rightShoulder
				{
					OFFSET -4.570000 11.014877 -2.160840
					CHANNELS 6 Xposition Yposition Zposition Xrotation Yrotation Zrotation
					JOINT rightUpperArm
					{
						OFFSET -10.592867 -0.524796 -2.232105
						CHANNELS 3 Xrotation Yrotation Zrotation
						JOINT rightLowerArm
						{
							OFFSET -27.841497 0.000000 -0.000002
							CHANNELS 3 Xrotation Yrotation Zrotation
							JOINT rightHand
							{
								OFFSET -28.328812 0.000000 -0.000001
								CHANNELS 3 Xrotation Yrotation Zrotation
								JOINT rightThumbProximal
								{
									OFFSET -2.464798 -1.573990 2.681911
									CHANNELS 6 Xposition Yposition Zposition Xrotation Yrotation Zrotation
									JOINT rightThumbIntermediate
									{
										OFFSET -3.244781 -1.873383 1.873376
										CHANNELS 3 Xrotation Yrotation Zrotation
										JOINT rightThumbDistal
										{
											OFFSET -2.646263 -1.527817 1.527818
											CHANNELS 6 Xposition Yposition Zposition Xrotation Yrotation Zrotation
											JOINT rightHandThumb4
											{
												OFFSET -1.994591 -1.151581 1.151575
												CHANNELS 6 Xposition Yposition Zposition Xrotation Yrotation Zrotation
												End Site
												{
													OFFSET -1.860176 -1.142715 1.365483
												}
											}
										}
									}
								}
								JOINT rightIndexProximal
								{
									OFFSET -9.108299 -0.517883 2.259803
									CHANNELS 6 Xposition Yposition Zposition Xrotation Yrotation Zrotation
									JOINT rightIndexIntermediate
									{
										OFFSET -3.699997 0.000000 0.000000
										CHANNELS 3 Xrotation Yrotation Zrotation
										JOINT rightIndexDistal
										{
											OFFSET -2.850006 0.000000 0.000000
											CHANNELS 3 Xrotation Yrotation Zrotation
											JOINT rightHandIndex4
											{
												OFFSET -2.772194 0.000000 0.000000
												CHANNELS 3 Xrotation Yrotation Zrotation
												End Site
												{
													OFFSET -2.772202 0.000000 -0.000484
												}
											}
										}
									}
								}
								JOINT rightMiddleProximal
								{
									OFFSET -9.532501 0.000000 -0.000000
									CHANNELS 6 Xposition Yposition Zposition Xrotation Yrotation Zrotation
									JOINT rightMiddleIntermediate
									{
										OFFSET -3.699997 0.000000 0.000000
										CHANNELS 3 Xrotation Yrotation Zrotation
										JOINT rightMiddleDistal
										{
											OFFSET -2.949997 0.000000 0.000000
											CHANNELS 3 Xrotation Yrotation Zrotation
											JOINT rightHandMiddle4
											{
												OFFSET -2.946594 0.000000 0.000000
												CHANNELS 3 Xrotation Yrotation Zrotation
												End Site
												{
													OFFSET -2.946602 0.000000 -0.000982
												}
											}
										}
									}
								}
								JOINT rightRingProximal
								{
									OFFSET -9.103600 -0.043106 -1.865100
									CHANNELS 6 Xposition Yposition Zposition Xrotation Yrotation Zrotation
									JOINT rightRingIntermediate
									{
										OFFSET -3.379303 0.000000 0.000000
										CHANNELS 3 Xrotation Yrotation Zrotation
										JOINT rightRingDistal
										{
											OFFSET -2.889694 0.000000 0.000000
											CHANNELS 3 Xrotation Yrotation Zrotation
											JOINT rightHandRing4
											{
												OFFSET -2.638802 0.000000 0.000000
												CHANNELS 3 Xrotation Yrotation Zrotation
												End Site
												{
													OFFSET -2.638802 0.000000 0.004218
												}
											}
										}
									}
								}
								JOINT rightLittleProximal
								{
									OFFSET -8.076698 -0.486725 -3.806299
									CHANNELS 6 Xposition Yposition Zposition Xrotation Yrotation Zrotation
									JOINT rightLittleIntermediate
									{
										OFFSET -3.600006 0.000000 0.000000
										CHANNELS 3 Xrotation Yrotation Zrotation
										JOINT rightLittleDistal
										{
											OFFSET -2.099998 0.000000 0.000000
											CHANNELS 3 Xrotation Yrotation Zrotation
											JOINT rightHandPinky4
											{
												OFFSET -2.115791 0.000000 0.000000
												CHANNELS 3 Xrotation Yrotation Zrotation
												End Site
												{
													OFFSET -2.115799 0.000000 0.000174
												}
											}
										}
									}
								}
							}
						}
					}
				}
				JOINT leftShoulder
				{
					OFFSET 4.570400 11.014679 -2.160816
					CHANNELS 6 Xposition Yposition Zposition Xrotation Yrotation Zrotation
					JOINT leftUpperArm
					{
						OFFSET 10.592373 -0.524597 -2.232116
						CHANNELS 3 Xrotation Yrotation Zrotation
						JOINT leftLowerArm
						{
							OFFSET 27.841488 0.000000 0.000001
							CHANNELS 3 Xrotation Yrotation Zrotation
							JOINT leftHand
							{
								OFFSET 28.328808 0.000000 -0.000000
								CHANNELS 3 Xrotation Yrotation Zrotation
								JOINT leftThumbProximal
								{
									OFFSET 2.466103 -1.576202 2.681698
									CHANNELS 6 Xposition Yposition Zposition Xrotation Yrotation Zrotation
									JOINT leftThumbIntermediate
									{
										OFFSET 3.243317 -1.872528 1.872530
										CHANNELS 3 Xrotation Yrotation Zrotation
										JOINT leftThumbDistal
										{
											OFFSET 2.647881 -1.528763 1.528754
											CHANNELS 6 Xposition Yposition Zposition Xrotation Yrotation Zrotation
											JOINT leftHandThumb4
											{
												OFFSET 1.998924 -1.154083 1.154080
												CHANNELS 6 Xposition Yposition Zposition Xrotation Yrotation Zrotation
												End Site
												{
													OFFSET 1.884041 -1.149155 1.337651
												}
											}
										}
									}
								}
								JOINT leftIndexProximal
								{
									OFFSET 9.109299 -0.518005 2.259900
									CHANNELS 6 Xposition Yposition Zposition Xrotation Yrotation Zrotation
									JOINT leftIndexIntermediate
									{
										OFFSET 3.699997 0.000000 0.000000
										CHANNELS 3 Xrotation Yrotation Zrotation
										JOINT leftIndexDistal
										{
											OFFSET 2.850006 0.000000 0.000000
											CHANNELS 3 Xrotation Yrotation Zrotation
											JOINT leftHandIndex4
											{
												OFFSET 2.774895 0.000000 0.000000
												CHANNELS 3 Xrotation Yrotation Zrotation
												End Site
												{
													OFFSET 2.774902 0.000000 -0.000072
												}
											}
										}
									}
								}
								JOINT leftMiddleProximal
								{
									OFFSET 9.533401 0.000000 0.000000
									CHANNELS 6 Xposition Yposition Zposition Xrotation Yrotation Zrotation
									JOINT leftMiddleIntermediate
									{
										OFFSET 3.699997 0.000000 0.000000
										CHANNELS 3 Xrotation Yrotation Zrotation
										JOINT leftMiddleDistal
										{
											OFFSET 2.949997 0.000000 0.000000
											CHANNELS 3 Xrotation Yrotation Zrotation
											JOINT leftHandMiddle4
											{
												OFFSET 2.952896 0.000000 0.000000
												CHANNELS 3 Xrotation Yrotation Zrotation
												End Site
												{
													OFFSET 2.952904 0.000000 0.000165
												}
											}
										}
									}
								}
								JOINT leftRingProximal
								{
									OFFSET 9.104500 -0.042999 -1.865101
									CHANNELS 6 Xposition Yposition Zposition Xrotation Yrotation Zrotation
									JOINT leftRingIntermediate
									{
										OFFSET 3.149994 0.000000 0.000000
										CHANNELS 3 Xrotation Yrotation Zrotation
										JOINT leftRingDistal
										{
											OFFSET 2.950005 0.000000 0.000000
											CHANNELS 3 Xrotation Yrotation Zrotation
											JOINT leftHandRing4
											{
												OFFSET 2.644302 0.000000 0.000000
												CHANNELS 3 Xrotation Yrotation Zrotation
												End Site
												{
													OFFSET 2.644302 0.000000 0.000083
												}
											}
										}
									}
								}
								JOINT leftLittleProximal
								{
									OFFSET 8.077805 -0.486893 -3.806302
									CHANNELS 6 Xposition Yposition Zposition Xrotation Yrotation Zrotation
									JOINT leftLittleIntermediate
									{
										OFFSET 3.600006 0.000000 0.000000
										CHANNELS 3 Xrotation Yrotation Zrotation
										JOINT leftLittleDistal
										{
											OFFSET 2.099998 0.000000 0.000000
											CHANNELS 3 Xrotation Yrotation Zrotation
											JOINT leftHandPinky4
											{
												OFFSET 2.125496 0.000000 0.000000
												CHANNELS 3 Xrotation Yrotation Zrotation
												End Site
												{
													OFFSET 2.125504 0.000000 -0.001254
												}
											}
										}
									}
								}
							}
						}
					}
				}
			}
		}
	}
	JOINT rightUpperLeg
	{
		OFFSET -8.207800 -6.751701 -1.599544
		CHANNELS 6 Xposition Yposition Zposition Xrotation Yrotation Zrotation
		JOINT rightLowerLeg
		{
			OFFSET 0.000004 -44.370152 0.345934
			CHANNELS 3 Xrotation Yrotation Zrotation
			JOINT rightFoot
			{
				OFFSET 0.000004 -44.423664 -3.043535
				CHANNELS 3 Xrotation Yrotation Zrotation
				JOINT rightToes
				{
					OFFSET 0.000001 -8.728691 10.710592
					CHANNELS 3 Xrotation Yrotation Zrotation
					JOINT rightToesEnd
					{
						OFFSET 0.000000 -0.000665 9.278101
						CHANNELS 3 Xrotation Yrotation Zrotation
						End Site
						{
							OFFSET 0.000000 -0.000665 9.278103
						}
					}
				}
			}
		}
	}
	JOINT leftUpperLeg
	{
		OFFSET 8.207800 -6.751701 -1.599544
		CHANNELS 6 Xposition Yposition Zposition Xrotation Yrotation Zrotation
		JOINT leftLowerLeg
		{
			OFFSET 0.000004 -44.370037 0.346940
			CHANNELS 3 Xrotation Yrotation Zrotation
			JOINT leftFoot
			{
				OFFSET 0.000004 -44.423611 -3.044388
				CHANNELS 3 Xrotation Yrotation Zrotation
				JOINT leftToes
				{
					OFFSET 0.000001 -8.728690 10.710592
					CHANNELS 3 Xrotation Yrotation Zrotation
					JOINT leftToesEnd
					{
						OFFSET 0.000000 -0.000680 9.278101
						CHANNELS 3 Xrotation Yrotation Zrotation
						End Site
						{
							OFFSET 0.000000 -0.000680 9.278101
						}
					}
				}
			}
		}
	}
}
MOTION
Frames: 4
Frame Time: 0.033333
2.519918 79.613861 1.761658 57.503294 58.604785 -35.643076 0.000002 10.181550 0.131525 16.477591 -6.747633 -6.892060 -4.336122 0.300452 -4.105281 1.640205 -0.487093 -4.263158 -0.000001 16.740364 -2.049020 -14.397494 -10.111671 1.298478 0.000004 9.617863 1.684974 0.285135 -47.582725 18.617665 0.000002 22.037369 7.501071 -0.000001 0.000001 -0.000000 -4.569999 11.014867 -2.160843 3.890959 13.083858 5.312064 -59.420119 -8.909665 25.017600 -0.000008 47.130890 0.000040 34.331280 5.483674 -49.884949 -2.464792 -1.573998 2.681912 -13.883081 -3.695150 13.911965 7.375305 -23.020792 -2.783640 -2.646261 -1.527815 1.527818 -3.459199 -24.954446 -18.671270 -1.994605 -1.151599 1.151573 0.000003 -0.000001 -0.000000 -9.108296 -0.517878 2.259797 0.078020 -1.754111 -6.493626 0.027747 -0.508194 6.250789 0.018226 -0.412074 5.065098 0.000002 -0.000001 0.000002 -9.532501 0.000022 -0.000006 0.068862 -2.722086 5.410662 0.028367 -0.513851 6.320910 0.011456 -0.326861 4.015640 -0.000001 0.000003 0.000000 -9.103592 -0.043097 -1.865100 3.283477 -10.155118 25.110496 0.330880 -1.725716 21.706273 0.456543 -2.012754 25.557034 -0.000001 0.000002 0.000002 -8.076676 -0.486727 -3.806301 10.235404 -21.028424 34.973263 0.938138 -2.805181 36.976667 2.300847 -4.018218 59.577718 0.000000 -0.000000 0.000000 4.570401 11.014681 -2.160815 8.682097 12.511611 -8.977778 51.275026 -32.636642 -20.454671 -0.000001 -39.648203 0.000009 -25.979166 -35.516871 13.304175 2.466086 -1.576203 2.681700 -16.063753 -0.644311 -1.721592 4.401035 20.298407 -9.586117 2.647886 -1.528749 1.528753 -17.892555 -22.034605 5.837295 1.998910 -1.154079 1.154076 0.000001 0.000005 -0.000000 9.109299 -0.517998 2.259903 2.184451 -10.355543 2.710302 0.195053 1.500690 -14.811743 0.025220 0.543676 -5.313034 -0.000000 -0.000001 -0.000001 9.533397 0.000006 0.000000 -0.505254 -0.552160 -9.697537 0.204908 1.537498 -15.183784 0.025189 0.543381 -5.310151 -0.000002 -0.000001 0.000001 9.104492 -0.042995 -1.865098 4.540175 16.352509 -18.454826 2.291112 4.646580 -52.476313 1.265482 3.638206 -38.349801 -0.000001 0.000001 0.000001 8.077804 -0.486899 -3.806301 1.152554 25.023788 -17.568546 2.223967 4.594408 -51.642886 1.265305 3.637982 -38.346881 0.000000 0.000002 -0.000002 -8.207800 -6.751702 -1.599544 -66.131859 14.645397 -42.961589 18.429990 -7.471603 -2.346128 42.143534 -23.060476 25.967964 -3.643927 -0.000003 -0.000003 -0.000000 0.000001 0.000000 8.207799 -6.751708 -1.599543 -67.645845 20.240627 0.638950 76.368161 7.065960 1.514243 -27.227200 22.246788 -7.853825 -2.752171 -0.000016 -0.000009 -0.000000 0.000001 0.000000 
2.586542 79.621918 1.730633 56.844625 58.443545 -34.947732 -0.000000 10.181545 0.131523 16.529116 -6.761081 -6.928131 -4.290368 0.331928 -4.110076 1.686671 -0.454642 -4.269400 -0.000004 16.740360 -2.049018 -14.387242 -10.101358 1.340000 0.000004 9.617842 1.684980 0.082841 -47.476952 18.478003 0.000001 22.037369 7.501074 -0.000001 0.000001 -0.000000 -4.570002 11.014875 -2.160847 3.695905 13.331915 6.083649 -59.236557 -7.831687 24.577177 -0.000044 47.488157 0.000085 34.042981 5.624014 -49.516826 -2.464802 -1.573996 2.681917 -13.883074 -3.695164 13.911962 7.375308 -23.020832 -2.783635 -2.646273 -1.527801 1.527813 -3.459180 -24.954441 -18.671248 -1.994594 -1.151586 1.151574 0.000001 -0.000004 -0.000002 -9.108320 -0.517861 2.259808 0.078021 -1.754118 -6.493642 0.027748 -0.508176 6.250817 0.018217 -0.412066 5.065114 -0.000000 -0.000001 0.000002 -9.532502 0.000008 0.000003 0.068854 -2.722088 5.410675 0.028378 -0.513852 6.320902 0.011461 -0.326862 4.015632 0.000001 0.000001 -0.000000 -9.103607 -0.043096 -1.865101 3.283481 -10.155115 25.110506 0.330878 -1.725720 21.706254 0.456533 -2.012752 25.557040 -0.000002 0.000000 0.000001 -8.076696 -0.486717 -3.806292 10.235414 -21.028441 34.973253 0.938120 -2.805174 36.976670 2.300871 -4.018225 59.577705 0.000000 0.000000 0.000000 4.570401 11.014668 -2.160819 8.583156 12.129375 -9.070209 50.488280 -32.184026 -20.904301 -0.000001 -39.579464 0.000019 -25.695554 -35.362451 13.378808 2.466101 -1.576202 2.681705 -16.063761 -0.644314 -1.721598 4.401047 20.298397 -9.586107 2.647897 -1.528751 1.528745 -17.892572 -22.034610 5.837302 1.998920 -1.154095 1.154075 -0.000002 -0.000003 0.000002 9.109303 -0.518028 2.259899 2.184449 -10.355547 2.710303 0.195063 1.500691 -14.811748 0.025207 0.543671 -5.313028 0.000001 -0.000001 -0.000001 9.533402 0.000011 0.000004 -0.505252 -0.552175 -9.697521 0.204912 1.537491 -15.183789 0.025194 0.543375 -5.310149 0.000001 -0.000000 -0.000002 9.104515 -0.042999 -1.865099 4.540162 16.352508 -18.454833 2.291112 4.646582 -52.476289 1.265488 3.638216 -38.349798 -0.000001 0.000001 0.000000 8.077803 -0.486897 -3.806298 1.152556 25.023786 -17.568543 2.223964 4.594398 -51.642879 1.265299 3.637979 -38.346902 0.000000 -0.000001 -0.000003 -8.207797 -6.751713 -1.599555 -66.103493 14.585049 -42.782263 18.137950 -7.257680 -2.338787 42.265836 -23.036642 25.882717 -3.640947 -0.000013 0.000006 -0.000000 0.000000 0.000000 8.207799 -6.751711 -1.599552 -67.461451 20.305534 0.638089 76.402018 7.281330 1.534308 -27.264040 22.470571 -7.908854 -3.095086 0.000019 0.000003 0.000000 -0.000001 0.000000 
2.670134 79.616165 1.667297 56.236793 58.330471 -34.260021 -0.000003 10.181538 0.131524 16.559437 -6.828988 -6.961744 -4.262813 0.340249 -4.123308 1.714353 -0.447912 -4.282891 -0.000001 16.740396 -2.049021 -14.370255 -10.097996 1.328080 0.000002 9.617855 1.684976 0.193807 -47.458535 18.556741 0.000001 22.037384 7.501076 -0.000000 -0.000000 0.000000 -4.570002 11.014883 -2.160835 3.504045 13.523684 6.807730 -58.958418 -6.882123 24.303072 -0.000034 47.950838 0.000069 33.924474 5.377379 -49.641255 -2.464802 -1.573998 2.681916 -13.883076 -3.695160 13.911949 7.375308 -23.020818 -2.783637 -2.646265 -1.527817 1.527815 -3.459178 -24.954422 -18.671242 -1.994590 -1.151573 1.151572 0.000001 -0.000001 -0.000000 -9.108305 -0.517886 2.259811 0.078019 -1.754116 -6.493640 0.027756 -0.508188 6.250802 0.018232 -0.412069 5.065107 -0.000000 -0.000001 0.000003 -9.532496 0.000022 0.000005 0.068860 -2.722084 5.410668 0.028374 -0.513857 6.320901 0.011456 -0.326855 4.015638 0.000000 -0.000002 0.000001 -9.103596 -0.043108 -1.865095 3.283478 -10.155113 25.110497 0.330884 -1.725732 21.706275 0.456538 -2.012757 25.557026 0.000003 0.000001 0.000001 -8.076695 -0.486732 -3.806293 10.235418 -21.028443 34.973249 0.938128 -2.805181 36.976674 2.300850 -4.018215 59.577712 -0.000001 0.000000 0.000001 4.570402 11.014696 -2.160816 8.329961 11.175840 -9.298054 48.574191 -30.987045 -21.999836 -0.000013 -39.398105 -0.000001 -24.984907 -34.989567 13.572236 2.466089 -1.576197 2.681701 -16.063749 -0.644313 -1.721591 4.401025 20.298407 -9.586101 2.647879 -1.528762 1.528745 -17.892563 -22.034597 5.837294 1.998909 -1.154083 1.154074 0.000000 -0.000003 -0.000000 9.109291 -0.518010 2.259898 2.184449 -10.355535 2.710274 0.195058 1.500689 -14.811755 0.025227 0.543679 -5.313029 -0.000001 -0.000000 -0.000000 9.533390 0.000014 0.000001 -0.505258 -0.552167 -9.697530 0.204901 1.537497 -15.183779 0.025187 0.543384 -5.310154 -0.000004 -0.000001 -0.000002 9.104496 -0.043002 -1.865103 4.540171 16.352509 -18.454838 2.291116 4.646585 -52.476313 1.265494 3.638213 -38.349808 0.000000 0.000000 -0.000000 8.077801 -0.486886 -3.806302 1.152563 25.023783 -17.568561 2.223977 4.594400 -51.642879 1.265286 3.637965 -38.346895 -0.000001 0.000001 -0.000000 -8.207807 -6.751711 -1.599549 -66.012132 14.558442 -42.704481 17.822385 -7.039984 -2.330818 42.424668 -23.005872 25.847420 -3.625691 0.000001 -0.000004 0.000000 0.000001 0.000000 8.207797 -6.751709 -1.599552 -67.262528 20.411631 0.562689 76.470395 7.459810 1.557068 -27.260554 22.704922 -7.974282 -3.556409 -0.000023 -0.000003 -0.000000 -0.000001 0.000000 
2.749517 79.553833 1.575603 55.842575 58.258652 -33.846992 0.000002 10.181553 0.131524 16.564997 -6.885932 -6.946427 -4.257839 0.322927 -4.115492 1.718843 -0.464830 -4.274167 0.000001 16.740393 -2.049019 -14.403675 -10.120296 1.356445 0.000002 9.617841 1.684980 0.402939 -47.461793 18.762919 0.000002 22.037369 7.501077 -0.000003 -0.000000 0.000000 -4.569998 11.014891 -2.160848 3.313282 13.552239 7.685003 -58.510495 -5.887963 23.944345 -0.000039 48.323926 0.000067 33.831809 5.167068 -49.676984 -2.464796 -1.573985 2.681915 -13.883077 -3.695141 13.911966 7.375299 -23.020806 -2.783632 -2.646284 -1.527794 1.527823 -3.459187 -24.954458 -18.671256 -1.994598 -1.151598 1.151577 0.000001 -0.000009 -0.000000 -9.108305 -0.517871 2.259806 0.078017 -1.754123 -6.493652 0.027758 -0.508196 6.250808 0.018223 -0.412065 5.065095 0.000000 -0.000003 0.000002 -9.532503 0.000013 0.000006 0.068863 -2.722087 5.410663 0.028367 -0.513842 6.320906 0.011459 -0.326873 4.015641 0.000001 -0.000003 -0.000002 -9.103593 -0.043112 -1.865101 3.283477 -10.155107 25.110494 0.330876 -1.725732 21.706275 0.456537 -2.012742 25.557040 -0.000001 -0.000002 0.000001 -8.076702 -0.486726 -3.806298 10.235408 -21.028431 34.973249 0.938127 -2.805171 36.976674 2.300848 -4.018221 59.577725 -0.000000 0.000000 0.000001 4.570402 11.014690 -2.160820 8.002038 9.985941 -9.583348 46.278715 -29.365271 -23.313353 0.000006 -39.155104 -0.000006 -24.094288 -34.543262 13.822559 2.466088 -1.576198 2.681700 -16.063744 -0.644299 -1.721566 4.401037 20.298407 -9.586127 2.647889 -1.528750 1.528745 -17.892548 -22.034600 5.837324 1.998928 -1.154093 1.154071 0.000005 0.000003 0.000001 9.109293 -0.518002 2.259896 2.184448 -10.355535 2.710288 0.195054 1.500695 -14.811808 0.025226 0.543681 -5.313027 0.000004 -0.000002 -0.000001 9.533405 0.000008 -0.000005 -0.505286 -0.552155 -9.697532 0.204920 1.537501 -15.183832 0.025199 0.543388 -5.310169 0.000003 -0.000001 0.000003 9.104511 -0.043001 -1.865107 4.540148 16.352504 -18.454816 2.291101 4.646580 -52.476275 1.265494 3.638207 -38.349794 0.000002 0.000001 0.000001 8.077806 -0.486900 -3.806304 1.152540 25.023785 -17.568524 2.223963 4.594404 -51.642849 1.265299 3.637966 -38.346871 -0.000001 0.000001 -0.000001 -8.207799 -6.751698 -1.599542 -65.966957 14.591915 -42.673420 17.716447 -6.850764 -2.328663 42.535338 -22.991416 25.928506 -3.549883 0.000009 -0.000001 -0.000000 0.000001 0.000000 8.207799 -6.751688 -1.599555 -67.251675 20.456697 0.541863 76.699404 7.701853 1.567497 -27.128632 22.775785 -8.155386 -4.086392 -0.000011 -0.000001 0.000000 -0.000001 -0.000000 
